<?xml version="1.0" standalone="no"?>
<!DOCTYPE svg PUBLIC "-//W3C//DTD SVG 20010904//EN"
 "http://www.w3.org/TR/2001/REC-SVG-20010904/DTD/svg10.dtd">
<svg version="1.0" xmlns="http://www.w3.org/2000/svg"
 width="1024.000000pt" height="1024.000000pt" viewBox="0 0 1024.000000 1024.000000"
 preserveAspectRatio="xMidYMid meet">

<g transform="translate(0.000000,1024.000000) scale(0.100000,-0.100000)"
fill="#000000" stroke="none">
<path d="M0 5120 l0 -5120 5120 0 5120 0 0 5120 0 5120 -5120 0 -5120 0 0
-5120z m5386 1853 c123 -251 391 -811 736 -1533 93 -195 173 -359 177 -365 5
-5 36 -71 71 -145 34 -74 122 -259 195 -410 73 -151 239 -495 368 -765 129
-269 258 -537 286 -595 28 -58 51 -106 51 -107 0 -2 -242 -3 -539 -3 -419 0
-541 3 -548 13 -5 6 -31 59 -57 117 -27 58 -98 205 -158 328 l-110 222 -740
-2 -739 -3 -164 -335 -164 -335 -541 -3 c-384 -1 -540 1 -540 9 0 6 56 126
124 267 68 141 216 448 329 682 113 234 300 621 417 860 117 239 277 570 357
735 80 165 236 487 348 715 111 228 255 526 320 663 l118 247 139 0 139 0 125
-257z"/>
<path d="M4935 6535 c-103 -209 -295 -603 -427 -875 -132 -272 -335 -688 -451
-925 -115 -236 -242 -497 -282 -580 -40 -82 -114 -235 -165 -340 -199 -409
-250 -518 -244 -524 9 -9 498 -13 511 -4 7 5 86 160 177 346 l165 337 900 0
900 0 93 -192 c51 -106 126 -260 168 -342 l75 -149 254 2 c140 1 257 3 259 5
3 4 -175 377 -531 1111 -82 171 -180 373 -217 450 -379 789 -704 1461 -873
1805 l-125 255 -187 -380z m465 -1265 c380 -782 422 -870 418 -882 -3 -9 -173
-12 -691 -16 -610 -3 -688 -2 -693 12 -7 19 35 110 326 706 128 261 261 536
297 610 l65 135 40 -80 c23 -44 130 -262 238 -485z"/>
<path d="M5110 5258 c0 -7 -70 -155 -155 -328 l-155 -315 317 -3 c174 -1 318
0 321 3 4 4 -29 75 -231 487 -76 155 -97 189 -97 156z"/>
</g>
</svg>
